<mxfile host="app.diagrams.net" modified="2022-11-24T06:20:12.545Z" agent="5.0 (Windows NT 10.0; Win64; x64) AppleWebKit/537.36 (KHTML, like Gecko) Chrome/107.0.0.0 Safari/537.36" etag="7ZX2FNiNoVaF3OPVuHId" version="20.5.3" type="github">
  <diagram id="8e5bhSPHla1KySngh2P2" name="Page-1">
    <mxGraphModel dx="1449" dy="618" grid="1" gridSize="10" guides="1" tooltips="1" connect="1" arrows="1" fold="1" page="1" pageScale="1" pageWidth="850" pageHeight="1100" math="0" shadow="0">
      <root>
        <mxCell id="0" />
        <mxCell id="1" parent="0" />
        <mxCell id="bTu1hxUoZG-RKfqy8-8c-2" value="Bubble Sort" style="whiteSpace=wrap;html=1;aspect=fixed;" vertex="1" parent="1">
          <mxGeometry x="270" y="380" width="80" height="80" as="geometry" />
        </mxCell>
        <mxCell id="bTu1hxUoZG-RKfqy8-8c-3" value="Vinayak" style="text;html=1;align=center;verticalAlign=middle;resizable=0;points=[];autosize=1;strokeColor=none;fillColor=none;" vertex="1" parent="1">
          <mxGeometry x="350" y="405" width="70" height="30" as="geometry" />
        </mxCell>
        <mxCell id="bTu1hxUoZG-RKfqy8-8c-5" value="Quick" style="whiteSpace=wrap;html=1;aspect=fixed;" vertex="1" parent="1">
          <mxGeometry x="270" y="480" width="80" height="80" as="geometry" />
        </mxCell>
        <mxCell id="bTu1hxUoZG-RKfqy8-8c-6" value="Aamya" style="text;html=1;align=center;verticalAlign=middle;resizable=0;points=[];autosize=1;strokeColor=none;fillColor=none;" vertex="1" parent="1">
          <mxGeometry x="355" y="505" width="60" height="30" as="geometry" />
        </mxCell>
        <mxCell id="bTu1hxUoZG-RKfqy8-8c-7" value="Selection" style="whiteSpace=wrap;html=1;aspect=fixed;" vertex="1" parent="1">
          <mxGeometry x="270" y="580" width="80" height="80" as="geometry" />
        </mxCell>
        <mxCell id="bTu1hxUoZG-RKfqy8-8c-8" value="Deep" style="text;html=1;align=center;verticalAlign=middle;resizable=0;points=[];autosize=1;strokeColor=none;fillColor=none;" vertex="1" parent="1">
          <mxGeometry x="360" y="605" width="50" height="30" as="geometry" />
        </mxCell>
        <mxCell id="bTu1hxUoZG-RKfqy8-8c-9" value="Merge" style="whiteSpace=wrap;html=1;aspect=fixed;" vertex="1" parent="1">
          <mxGeometry x="270" y="680" width="80" height="80" as="geometry" />
        </mxCell>
        <mxCell id="bTu1hxUoZG-RKfqy8-8c-10" value="Ujjwal" style="text;html=1;align=center;verticalAlign=middle;resizable=0;points=[];autosize=1;strokeColor=none;fillColor=none;" vertex="1" parent="1">
          <mxGeometry x="355" y="705" width="60" height="30" as="geometry" />
        </mxCell>
        <mxCell id="bTu1hxUoZG-RKfqy8-8c-11" value="Insertion" style="whiteSpace=wrap;html=1;aspect=fixed;" vertex="1" parent="1">
          <mxGeometry x="270" y="780" width="80" height="80" as="geometry" />
        </mxCell>
        <mxCell id="bTu1hxUoZG-RKfqy8-8c-12" value="Aryaman" style="text;html=1;align=center;verticalAlign=middle;resizable=0;points=[];autosize=1;strokeColor=none;fillColor=none;" vertex="1" parent="1">
          <mxGeometry x="350" y="805" width="70" height="30" as="geometry" />
        </mxCell>
        <mxCell id="bTu1hxUoZG-RKfqy8-8c-22" style="edgeStyle=orthogonalEdgeStyle;rounded=0;orthogonalLoop=1;jettySize=auto;html=1;exitX=0.5;exitY=1;exitDx=0;exitDy=0;entryX=0.5;entryY=0;entryDx=0;entryDy=0;" edge="1" parent="1" source="bTu1hxUoZG-RKfqy8-8c-13" target="bTu1hxUoZG-RKfqy8-8c-14">
          <mxGeometry relative="1" as="geometry" />
        </mxCell>
        <mxCell id="bTu1hxUoZG-RKfqy8-8c-36" style="edgeStyle=orthogonalEdgeStyle;rounded=0;orthogonalLoop=1;jettySize=auto;html=1;exitX=0.5;exitY=0;exitDx=0;exitDy=0;entryX=0.5;entryY=1;entryDx=0;entryDy=0;" edge="1" parent="1" source="bTu1hxUoZG-RKfqy8-8c-13" target="bTu1hxUoZG-RKfqy8-8c-25">
          <mxGeometry relative="1" as="geometry" />
        </mxCell>
        <mxCell id="bTu1hxUoZG-RKfqy8-8c-13" value="Main Program" style="whiteSpace=wrap;html=1;aspect=fixed;" vertex="1" parent="1">
          <mxGeometry x="540" y="360" width="130" height="130" as="geometry" />
        </mxCell>
        <mxCell id="bTu1hxUoZG-RKfqy8-8c-20" style="edgeStyle=orthogonalEdgeStyle;rounded=0;orthogonalLoop=1;jettySize=auto;html=1;exitX=0;exitY=0.5;exitDx=0;exitDy=0;" edge="1" parent="1" source="bTu1hxUoZG-RKfqy8-8c-14" target="bTu1hxUoZG-RKfqy8-8c-18">
          <mxGeometry relative="1" as="geometry" />
        </mxCell>
        <mxCell id="bTu1hxUoZG-RKfqy8-8c-21" style="edgeStyle=orthogonalEdgeStyle;rounded=0;orthogonalLoop=1;jettySize=auto;html=1;exitX=1;exitY=0.5;exitDx=0;exitDy=0;entryX=0.5;entryY=0;entryDx=0;entryDy=0;" edge="1" parent="1" source="bTu1hxUoZG-RKfqy8-8c-14" target="bTu1hxUoZG-RKfqy8-8c-19">
          <mxGeometry relative="1" as="geometry" />
        </mxCell>
        <mxCell id="bTu1hxUoZG-RKfqy8-8c-14" value="Menu Driven" style="whiteSpace=wrap;html=1;aspect=fixed;" vertex="1" parent="1">
          <mxGeometry x="557.5" y="550" width="95" height="95" as="geometry" />
        </mxCell>
        <mxCell id="bTu1hxUoZG-RKfqy8-8c-18" value="Switch" style="whiteSpace=wrap;html=1;aspect=fixed;" vertex="1" parent="1">
          <mxGeometry x="500" y="660" width="80" height="80" as="geometry" />
        </mxCell>
        <mxCell id="bTu1hxUoZG-RKfqy8-8c-19" value="Intro" style="whiteSpace=wrap;html=1;aspect=fixed;" vertex="1" parent="1">
          <mxGeometry x="630" y="660" width="80" height="80" as="geometry" />
        </mxCell>
        <mxCell id="bTu1hxUoZG-RKfqy8-8c-23" value="Aryaman" style="text;html=1;align=center;verticalAlign=middle;resizable=0;points=[];autosize=1;strokeColor=none;fillColor=none;" vertex="1" parent="1">
          <mxGeometry x="500" y="735" width="70" height="30" as="geometry" />
        </mxCell>
        <mxCell id="bTu1hxUoZG-RKfqy8-8c-24" value="Vinayak" style="text;html=1;align=center;verticalAlign=middle;resizable=0;points=[];autosize=1;strokeColor=none;fillColor=none;" vertex="1" parent="1">
          <mxGeometry x="630" y="735" width="70" height="30" as="geometry" />
        </mxCell>
        <mxCell id="bTu1hxUoZG-RKfqy8-8c-31" style="edgeStyle=orthogonalEdgeStyle;rounded=0;orthogonalLoop=1;jettySize=auto;html=1;exitX=0;exitY=0.5;exitDx=0;exitDy=0;entryX=0;entryY=0.5;entryDx=0;entryDy=0;" edge="1" parent="1" source="bTu1hxUoZG-RKfqy8-8c-25" target="bTu1hxUoZG-RKfqy8-8c-2">
          <mxGeometry relative="1" as="geometry" />
        </mxCell>
        <mxCell id="bTu1hxUoZG-RKfqy8-8c-32" style="edgeStyle=orthogonalEdgeStyle;rounded=0;orthogonalLoop=1;jettySize=auto;html=1;exitX=0;exitY=0.5;exitDx=0;exitDy=0;entryX=0;entryY=0.5;entryDx=0;entryDy=0;" edge="1" parent="1" source="bTu1hxUoZG-RKfqy8-8c-25" target="bTu1hxUoZG-RKfqy8-8c-5">
          <mxGeometry relative="1" as="geometry" />
        </mxCell>
        <mxCell id="bTu1hxUoZG-RKfqy8-8c-33" style="edgeStyle=orthogonalEdgeStyle;rounded=0;orthogonalLoop=1;jettySize=auto;html=1;exitX=0;exitY=0.5;exitDx=0;exitDy=0;entryX=0;entryY=0.5;entryDx=0;entryDy=0;" edge="1" parent="1" source="bTu1hxUoZG-RKfqy8-8c-25" target="bTu1hxUoZG-RKfqy8-8c-7">
          <mxGeometry relative="1" as="geometry" />
        </mxCell>
        <mxCell id="bTu1hxUoZG-RKfqy8-8c-34" style="edgeStyle=orthogonalEdgeStyle;rounded=0;orthogonalLoop=1;jettySize=auto;html=1;exitX=0;exitY=0.5;exitDx=0;exitDy=0;entryX=0;entryY=0.5;entryDx=0;entryDy=0;" edge="1" parent="1" source="bTu1hxUoZG-RKfqy8-8c-25" target="bTu1hxUoZG-RKfqy8-8c-9">
          <mxGeometry relative="1" as="geometry" />
        </mxCell>
        <mxCell id="bTu1hxUoZG-RKfqy8-8c-35" style="edgeStyle=orthogonalEdgeStyle;rounded=0;orthogonalLoop=1;jettySize=auto;html=1;exitX=0;exitY=0.5;exitDx=0;exitDy=0;entryX=0;entryY=0.5;entryDx=0;entryDy=0;" edge="1" parent="1" source="bTu1hxUoZG-RKfqy8-8c-25" target="bTu1hxUoZG-RKfqy8-8c-11">
          <mxGeometry relative="1" as="geometry" />
        </mxCell>
        <mxCell id="bTu1hxUoZG-RKfqy8-8c-25" value="Sorts" style="whiteSpace=wrap;html=1;aspect=fixed;" vertex="1" parent="1">
          <mxGeometry x="565" y="220" width="80" height="80" as="geometry" />
        </mxCell>
      </root>
    </mxGraphModel>
  </diagram>
</mxfile>
